<svg width="70" height="52" viewBox="0 0 70 52" fill="none" xmlns="http://www.w3.org/2000/svg">
<path d="M50.9836 6.19824C61.259 8.27882 68.9944 17.3609 68.9944 28.25C68.9944 32.1544 67.9987 35.826 66.2493 39.0264L59.5569 32.7178C56.8364 30.1539 52.5048 30.2356 49.883 32.9004C47.2617 35.5652 47.3417 39.8041 50.0618 42.3682L56.4787 48.416C53.47 49.9086 50.0807 50.75 46.4944 50.75C40.0157 50.7499 34.1779 48.0102 30.0725 43.6279C30.2972 43.3599 30.5065 43.0689 30.6907 42.75L50.176 9C50.699 8.0942 50.9534 7.13693 50.9836 6.19824ZM51.4651 40.9424L58.3127 47.3975L51.4641 40.9424C51.4043 40.886 51.3465 40.8282 51.2903 40.7695C51.3466 40.8283 51.4051 40.8859 51.4651 40.9424ZM44.9807 0C48.5531 0.00040435 51.087 2.99197 50.9836 6.19824C49.5331 5.90455 48.0315 5.75002 46.4944 5.75C34.0681 5.75015 23.9944 15.8237 23.9944 28.25C23.9944 34.1976 26.3037 39.6049 30.0725 43.6279C27.4794 46.7218 22.4233 46.4309 20.2981 42.75L0.812729 9C-1.49657 5.00003 1.39028 3.81122e-05 6.00902 0H44.9807ZM51.4719 34.1436C51.4865 34.1298 51.5001 34.1151 51.5149 34.1016L51.6985 33.9414C51.621 34.0057 51.546 34.0737 51.4719 34.1436ZM52.2844 33.5254L52.0832 33.6533C52.1491 33.609 52.2158 33.5662 52.2834 33.5254L52.4895 33.4082C52.4203 33.4454 52.352 33.4846 52.2844 33.5254ZM55.8703 32.9395C56.0216 32.9726 56.1715 33.013 56.3196 33.0605C56.2455 33.0368 56.1708 33.0153 56.0959 32.9951L55.8703 32.9395Z" fill="url(#paint0_linear_12_61)"/>
<rect width="7" height="20" rx="3.5" transform="matrix(0.701329 -0.712838 0.727702 0.685894 50 37.7027)" fill="#4B0D9C"/>
<defs>
<linearGradient id="paint0_linear_12_61" x1="-9.25336e-06" y1="-4.00001" x2="71" y2="49" gradientUnits="userSpaceOnUse">
<stop offset="0.0144231" stop-color="#DA66E1"/>
<stop offset="0.783654" stop-color="#4D1299"/>
</linearGradient>
</defs>
</svg>
