<svg width="160" height="140" viewBox="0 0 160 140" fill="none" xmlns="http://www.w3.org/2000/svg">
<path d="M160 70C160 31.3401 124.183 0 80 0C35.8172 0 0 31.3401 0 70C0 108.66 35.8172 140 80 140C124.183 140 160 108.66 160 70Z" fill="#00C9B1"/>
<path opacity="0.6" d="M56 42C61.5228 42 66 37.5228 66 32C66 26.4772 61.5228 22 56 22C50.4772 22 46 26.4772 46 32C46 37.5228 50.4772 42 56 42Z" fill="black"/>
<path opacity="0.6" d="M74 42C79.5228 42 84 37.5228 84 32C84 26.4772 79.5228 22 74 22C68.4772 22 64 26.4772 64 32C64 37.5228 68.4772 42 74 42Z" fill="black"/>
<path d="M41.0356 65V53.1H48.5156V55.14H43.2796V58.013H48.1076V60.053H43.2796V65H41.0356ZM54.7066 65.238C53.732 65.238 52.8933 65.0623 52.1906 64.711C51.4993 64.3483 50.9666 63.8383 50.5926 63.181C50.23 62.5123 50.0486 61.7247 50.0486 60.818V53.1H52.2926V60.886C52.2926 61.6113 52.4966 62.1837 52.9046 62.603C53.324 63.0223 53.9246 63.232 54.7066 63.232C55.4886 63.232 56.0836 63.0223 56.4916 62.603C56.911 62.1837 57.1206 61.6113 57.1206 60.886V53.1H59.3646V60.818C59.3646 61.7247 59.1776 62.5123 58.8036 63.181C58.441 63.8383 57.9083 64.3483 57.2056 64.711C56.5143 65.0623 55.6813 65.238 54.7066 65.238ZM61.5385 65V53.1H63.7825V62.96H69.2225V65H61.5385ZM70.7524 65V53.1H72.9964V62.96H78.4364V65H70.7524ZM84.0972 65.238C83.1792 65.238 82.3689 65.0737 81.6662 64.745C80.9636 64.4163 80.4139 63.946 80.0172 63.334C79.6206 62.722 79.4222 61.9853 79.4222 61.124V60.648H81.6322V61.124C81.6322 61.838 81.8532 62.3763 82.2952 62.739C82.7372 63.0903 83.3379 63.266 84.0972 63.266C84.8679 63.266 85.4402 63.113 85.8142 62.807C86.1996 62.501 86.3922 62.11 86.3922 61.634C86.3922 61.3053 86.2959 61.039 86.1032 60.835C85.9219 60.631 85.6499 60.4667 85.2872 60.342C84.9359 60.206 84.5052 60.0813 83.9952 59.968L83.6042 59.883C82.7882 59.7017 82.0856 59.475 81.4962 59.203C80.9182 58.9197 80.4706 58.5513 80.1532 58.098C79.8472 57.6447 79.6942 57.0553 79.6942 56.33C79.6942 55.6047 79.8642 54.987 80.2042 54.477C80.5556 53.9557 81.0429 53.559 81.6662 53.287C82.3009 53.0037 83.0432 52.862 83.8932 52.862C84.7432 52.862 85.4969 53.0093 86.1542 53.304C86.8229 53.5873 87.3442 54.018 87.7182 54.596C88.1036 55.1627 88.2962 55.8767 88.2962 56.738V57.248H86.0862V56.738C86.0862 56.2847 85.9956 55.922 85.8142 55.65C85.6442 55.3667 85.3949 55.1627 85.0662 55.038C84.7376 54.902 84.3466 54.834 83.8932 54.834C83.2132 54.834 82.7089 54.9643 82.3802 55.225C82.0629 55.4743 81.9042 55.82 81.9042 56.262C81.9042 56.5567 81.9779 56.806 82.1252 57.01C82.2839 57.214 82.5162 57.384 82.8222 57.52C83.1282 57.656 83.5192 57.775 83.9952 57.877L84.3862 57.962C85.2362 58.1433 85.9729 58.3757 86.5962 58.659C87.2309 58.9423 87.7239 59.3163 88.0752 59.781C88.4266 60.2457 88.6022 60.8407 88.6022 61.566C88.6022 62.2913 88.4152 62.9317 88.0412 63.487C87.6786 64.031 87.1572 64.4617 86.4772 64.779C85.8086 65.085 85.0152 65.238 84.0972 65.238ZM92.648 65V55.14H89.18V53.1H98.36V55.14H94.892V65H92.648ZM97.9764 65L101.104 53.1H105.014L108.142 65H105.83L105.184 62.382H100.934L100.288 65H97.9764ZM101.461 60.308H104.657L103.212 54.511H102.906L101.461 60.308ZM109.567 65V53.1H111.811V57.826H112.117L115.976 53.1H118.849L113.885 58.965L119.019 65H116.061L112.117 60.172H111.811V65H109.567Z" fill="black"/>
<path d="M35.0945 85V83.028H36.6585V75.072H35.0945V73.1H39.9905C41.5885 73.1 42.8012 73.508 43.6285 74.324C44.4672 75.1287 44.8865 76.33 44.8865 77.928V80.172C44.8865 81.77 44.4672 82.977 43.6285 83.793C42.8012 84.5977 41.5885 85 39.9905 85H35.0945ZM38.9025 82.96H40.0245C40.9312 82.96 41.5942 82.722 42.0135 82.246C42.4328 81.77 42.6425 81.1013 42.6425 80.24V77.86C42.6425 76.9873 42.4328 76.3187 42.0135 75.854C41.5942 75.378 40.9312 75.14 40.0245 75.14H38.9025V82.96ZM46.7568 85V73.1H54.4068V75.14H49.0008V77.979H53.9308V80.019H49.0008V82.96H54.5088V85H46.7568ZM58.3799 85L55.3539 73.1H57.6659L60.1819 83.555H60.4199L62.9359 73.1H65.2479L62.2219 85H58.3799ZM66.6786 85V73.1H74.3286V75.14H68.9226V77.979H73.8526V80.019H68.9226V82.96H74.4306V85H66.6786ZM76.0917 85V73.1H78.3357V82.96H83.7757V85H76.0917ZM89.5312 85.238C88.0352 85.238 86.8452 84.83 85.9612 84.014C85.0772 83.1867 84.6352 82.008 84.6352 80.478V77.622C84.6352 76.092 85.0772 74.919 85.9612 74.103C86.8452 73.2757 88.0352 72.862 89.5312 72.862C91.0272 72.862 92.2172 73.2757 93.1012 74.103C93.9852 74.919 94.4272 76.092 94.4272 77.622V80.478C94.4272 82.008 93.9852 83.1867 93.1012 84.014C92.2172 84.83 91.0272 85.238 89.5312 85.238ZM89.5312 83.232C90.3698 83.232 91.0215 82.9883 91.4862 82.501C91.9508 82.0137 92.1832 81.362 92.1832 80.546V77.554C92.1832 76.738 91.9508 76.0863 91.4862 75.599C91.0215 75.1117 90.3698 74.868 89.5312 74.868C88.7038 74.868 88.0522 75.1117 87.5762 75.599C87.1115 76.0863 86.8792 76.738 86.8792 77.554V80.546C86.8792 81.362 87.1115 82.0137 87.5762 82.501C88.0522 82.9883 88.7038 83.232 89.5312 83.232ZM96.3954 85V73.1H101.291C102.039 73.1 102.697 73.253 103.263 73.559C103.841 73.8537 104.289 74.273 104.606 74.817C104.935 75.361 105.099 76.007 105.099 76.755V76.993C105.099 77.7297 104.929 78.3757 104.589 78.931C104.261 79.475 103.807 79.9 103.229 80.206C102.663 80.5007 102.017 80.648 101.291 80.648H98.6394V85H96.3954ZM98.6394 78.608H101.07C101.603 78.608 102.034 78.4607 102.362 78.166C102.691 77.8713 102.855 77.469 102.855 76.959V76.789C102.855 76.279 102.691 75.8767 102.362 75.582C102.034 75.2873 101.603 75.14 101.07 75.14H98.6394V78.608ZM106.655 85V73.1H114.305V75.14H108.899V77.979H113.829V80.019H108.899V82.96H114.407V85H106.655ZM116.068 85V73.1H121.236C121.984 73.1 122.636 73.2303 123.191 73.491C123.747 73.7517 124.177 74.12 124.483 74.596C124.789 75.072 124.942 75.633 124.942 76.279V76.483C124.942 77.197 124.772 77.775 124.432 78.217C124.092 78.659 123.673 78.982 123.174 79.186V79.492C123.628 79.5147 123.979 79.6733 124.228 79.968C124.478 80.2513 124.602 80.631 124.602 81.107V85H122.358V81.43C122.358 81.158 122.285 80.937 122.137 80.767C122.001 80.597 121.769 80.512 121.44 80.512H118.312V85H116.068ZM118.312 78.472H120.998C121.531 78.472 121.945 78.3303 122.239 78.047C122.545 77.7523 122.698 77.367 122.698 76.891V76.721C122.698 76.245 122.551 75.8653 122.256 75.582C121.962 75.2873 121.542 75.14 120.998 75.14H118.312V78.472Z" fill="black"/>
<path opacity="0.3" d="M30 96H130" stroke="black"/>
<path d="M54.7324 107.619C54.024 107.619 53.4602 107.415 53.0409 107.007C52.6215 106.593 52.4119 105.993 52.4119 105.205V103.845C52.4119 103.057 52.6215 102.459 53.0409 102.051C53.4602 101.638 54.024 101.431 54.7324 101.431C55.435 101.431 55.9734 101.626 56.3474 102.017C56.727 102.408 56.9169 102.944 56.9169 103.624V103.666H56.2114V103.598C56.2114 103.151 56.0895 102.785 55.8459 102.502C55.6079 102.213 55.2367 102.068 54.7324 102.068C54.228 102.068 53.8342 102.224 53.5509 102.536C53.2675 102.842 53.1259 103.273 53.1259 103.828V105.222C53.1259 105.777 53.2675 106.211 53.5509 106.522C53.8342 106.828 54.228 106.981 54.7324 106.981C55.2367 106.981 55.6079 106.84 55.8459 106.556C56.0895 106.267 56.2114 105.899 56.2114 105.451V105.316H56.9169V105.426C56.9169 106.106 56.727 106.641 56.3474 107.032C55.9734 107.423 55.435 107.619 54.7324 107.619ZM60.1945 107.619C59.4861 107.619 58.9195 107.415 58.4945 107.007C58.0751 106.593 57.8655 105.993 57.8655 105.205V103.845C57.8655 103.057 58.0751 102.459 58.4945 102.051C58.9195 101.638 59.4861 101.431 60.1945 101.431C60.9085 101.431 61.4751 101.638 61.8945 102.051C62.3195 102.459 62.532 103.057 62.532 103.845V105.205C62.532 105.993 62.3195 106.593 61.8945 107.007C61.4751 107.415 60.9085 107.619 60.1945 107.619ZM60.1945 106.981C60.7101 106.981 61.1096 106.828 61.393 106.522C61.6763 106.211 61.818 105.78 61.818 105.23V103.819C61.818 103.27 61.6763 102.842 61.393 102.536C61.1096 102.224 60.7101 102.068 60.1945 102.068C59.6845 102.068 59.2878 102.224 59.0045 102.536C58.7211 102.842 58.5795 103.27 58.5795 103.819V105.23C58.5795 105.78 58.7211 106.211 59.0045 106.522C59.2878 106.828 59.6845 106.981 60.1945 106.981ZM63.2252 107.5V106.862H64.0582V102.188H63.2252V101.55H65.5457C66.3277 101.55 66.9312 101.748 67.3562 102.145C67.7869 102.542 68.0022 103.151 68.0022 103.972V105.077C68.0022 105.905 67.7869 106.517 67.3562 106.913C66.9312 107.304 66.3277 107.5 65.5457 107.5H63.2252ZM64.7722 106.854H65.5457C66.1237 106.854 66.56 106.712 66.8547 106.429C67.1494 106.146 67.2967 105.706 67.2967 105.111V103.947C67.2967 103.341 67.1494 102.899 66.8547 102.621C66.56 102.343 66.1237 102.204 65.5457 102.204H64.7722V106.854ZM69.1419 107.5V101.55H69.8559V107.5H69.1419ZM71.2171 107.5V101.55H72.6026L74.6766 107.049H74.7871V101.55H75.4926V107.5H74.1071L72.0416 101.992H71.9226V107.5H71.2171ZM78.9356 107.619C78.4936 107.619 78.1026 107.528 77.7626 107.347C77.4283 107.16 77.1648 106.888 76.9721 106.531C76.7851 106.174 76.6916 105.732 76.6916 105.205V103.845C76.6916 103.057 76.9013 102.459 77.3206 102.051C77.74 101.638 78.3038 101.431 79.0121 101.431C79.7148 101.431 80.2503 101.624 80.6186 102.009C80.987 102.394 81.1711 102.91 81.1711 103.556V103.598H80.4656V103.539C80.4656 103.256 80.4146 103.003 80.3126 102.782C80.2106 102.561 80.052 102.389 79.8366 102.264C79.6213 102.134 79.3465 102.068 79.0121 102.068C78.5078 102.068 78.114 102.224 77.8306 102.536C77.5473 102.842 77.4056 103.273 77.4056 103.828V105.222C77.4056 105.777 77.5473 106.211 77.8306 106.522C78.114 106.828 78.5106 106.981 79.0206 106.981C79.5193 106.981 79.8848 106.84 80.1171 106.556C80.3551 106.273 80.4741 105.896 80.4741 105.426V105.281H78.6721V104.669H81.1711V107.5H80.5251V106.854H80.4061C80.3438 106.979 80.256 107.1 80.1426 107.22C80.0293 107.338 79.8763 107.435 79.6836 107.509C79.491 107.582 79.2416 107.619 78.9356 107.619ZM84.6561 107.5V101.55H85.3701V106.854H88.3791V107.5H84.6561ZM89.2962 107.5V101.55H90.0102V107.5H89.2962ZM91.3714 107.5V101.55H92.0854V104.142H92.2044L94.7204 101.55H95.6724L92.7739 104.491L95.7744 107.5H94.7969L92.2044 104.856H92.0854V107.5H91.3714ZM96.5594 107.5V101.55H100.223V102.196H97.2734V104.185H99.9849V104.831H97.2734V106.854H100.265V107.5H96.5594ZM102.957 107.5L104.793 101.55H106.051L107.887 107.5H107.147L106.688 105.995H104.155L103.696 107.5H102.957ZM104.334 105.349H106.501L105.481 101.983H105.362L104.334 105.349Z" fill="black"/>
<path d="M69.4745 118.619C68.7662 118.619 68.2024 118.415 67.783 118.007C67.3637 117.593 67.154 116.993 67.154 116.205V114.845C67.154 114.057 67.3637 113.459 67.783 113.051C68.2024 112.638 68.7662 112.431 69.4745 112.431C70.1772 112.431 70.7155 112.626 71.0895 113.017C71.4692 113.408 71.659 113.944 71.659 114.624V114.666H70.9535V114.598C70.9535 114.151 70.8317 113.785 70.588 113.502C70.35 113.213 69.9789 113.068 69.4745 113.068C68.9702 113.068 68.5764 113.224 68.293 113.536C68.0097 113.842 67.868 114.273 67.868 114.828V116.222C67.868 116.777 68.0097 117.211 68.293 117.522C68.5764 117.828 68.9702 117.981 69.4745 117.981C69.9789 117.981 70.35 117.84 70.588 117.556C70.8317 117.267 70.9535 116.899 70.9535 116.451V116.316H71.659V116.426C71.659 117.106 71.4692 117.641 71.0895 118.032C70.7155 118.423 70.1772 118.619 69.4745 118.619ZM74.9367 118.619C74.2283 118.619 73.6617 118.415 73.2367 118.007C72.8173 117.593 72.6077 116.993 72.6077 116.205V114.845C72.6077 114.057 72.8173 113.459 73.2367 113.051C73.6617 112.638 74.2283 112.431 74.9367 112.431C75.6507 112.431 76.2173 112.638 76.6367 113.051C77.0617 113.459 77.2742 114.057 77.2742 114.845V116.205C77.2742 116.993 77.0617 117.593 76.6367 118.007C76.2173 118.415 75.6507 118.619 74.9367 118.619ZM74.9367 117.981C75.4523 117.981 75.8518 117.828 76.1352 117.522C76.4185 117.211 76.5602 116.78 76.5602 116.23V114.819C76.5602 114.27 76.4185 113.842 76.1352 113.536C75.8518 113.224 75.4523 113.068 74.9367 113.068C74.4267 113.068 74.03 113.224 73.7467 113.536C73.4633 113.842 73.3217 114.27 73.3217 114.819V116.23C73.3217 116.78 73.4633 117.211 73.7467 117.522C74.03 117.828 74.4267 117.981 74.9367 117.981ZM77.9674 118.5V117.862H78.8004V113.188H77.9674V112.55H80.2879C81.0699 112.55 81.6734 112.748 82.0984 113.145C82.529 113.542 82.7444 114.151 82.7444 114.972V116.077C82.7444 116.905 82.529 117.517 82.0984 117.913C81.6734 118.304 81.0699 118.5 80.2879 118.5H77.9674ZM79.5144 117.854H80.2879C80.8659 117.854 81.3022 117.712 81.5969 117.429C81.8915 117.146 82.0389 116.706 82.0389 116.111V114.947C82.0389 114.341 81.8915 113.899 81.5969 113.621C81.3022 113.343 80.8659 113.204 80.2879 113.204H79.5144V117.854ZM83.8841 118.5V112.55H87.5476V113.196H84.5981V115.185H87.3096V115.831H84.5981V117.854H87.5901V118.5H83.8841ZM88.6737 118.5V112.55H91.0792C91.4475 112.55 91.7705 112.615 92.0482 112.745C92.3315 112.87 92.5525 113.051 92.7112 113.289C92.8698 113.522 92.9492 113.802 92.9492 114.131V114.224C92.9492 114.615 92.8557 114.924 92.6687 115.151C92.4817 115.378 92.2607 115.531 92.0057 115.61V115.729C92.2097 115.735 92.3768 115.803 92.5072 115.933C92.6432 116.058 92.7112 116.247 92.7112 116.502V118.5H92.0057V116.587C92.0057 116.417 91.9575 116.287 91.8612 116.196C91.7705 116.106 91.6317 116.06 91.4447 116.06H89.3877V118.5H88.6737ZM89.3877 115.414H91.0112C91.4022 115.414 91.7025 115.321 91.9122 115.134C92.1275 114.941 92.2352 114.675 92.2352 114.335V114.275C92.2352 113.935 92.1303 113.672 91.9207 113.485C91.711 113.292 91.4078 113.196 91.0112 113.196H89.3877V115.414Z" fill="black"/>
</svg>
