<svg width="70" height="52" viewBox="0 0 70 52" fill="none" xmlns="http://www.w3.org/2000/svg">
<path d="M50.9836 6.19824C61.2592 8.27873 68.9944 17.3608 68.9944 28.25C68.9944 32.8859 67.5909 37.1934 65.1877 40.7734L58.1535 34.1436C56.237 32.3373 53.1862 32.3944 51.3391 34.2715C49.4919 36.149 49.5484 39.1359 51.4651 40.9424L58.3127 47.3975C54.8779 49.522 50.8299 50.75 46.4944 50.75C40.0156 50.7499 34.1779 48.0103 30.0725 43.6279C30.2972 43.3598 30.5065 43.069 30.6907 42.75L50.176 9C50.699 8.09417 50.9534 7.13696 50.9836 6.19824ZM44.9807 0C48.5533 0.000276199 51.087 2.9919 50.9836 6.19824C49.533 5.90454 48.0316 5.75 46.4944 5.75C34.0681 5.75015 23.9944 15.8237 23.9944 28.25C23.9944 34.1976 26.3037 39.6049 30.0725 43.6279C27.4794 46.7219 22.4233 46.431 20.2981 42.75L0.81273 9C-1.49657 5.00003 1.39028 3.82392e-05 6.00902 0H44.9807Z" fill="url(#paint0_linear_12_61)"/>
<rect width="7" height="20" rx="3.5" transform="matrix(0.701329 -0.712838 0.727702 0.685894 49.9998 37.7027)" fill="#4B0D9C"/>
<defs>
<linearGradient id="paint0_linear_12_61" x1="-0.000238135" y1="-4.00001" x2="70.9998" y2="49" gradientUnits="userSpaceOnUse">
<stop offset="0.0144231" stop-color="#DA66E1"/>
<stop offset="0.783654" stop-color="#4D1299"/>
</linearGradient>
</defs>
</svg>
