<svg width="202" height="62" viewBox="0 0 202 62" fill="none" xmlns="http://www.w3.org/2000/svg">
<path d="M170.75 0.75H30.75C14.1815 0.75 0.75 14.1815 0.75 30.75C0.75 47.3185 14.1815 60.75 30.75 60.75H170.75C187.319 60.75 200.75 47.3185 200.75 30.75C200.75 14.1815 187.319 0.75 170.75 0.75Z" fill="#1A1A1A" stroke="#444444" stroke-width="1.5"/>
<path d="M30.75 40.75C36.2728 40.75 40.75 36.2728 40.75 30.75C40.75 25.2272 36.2728 20.75 30.75 20.75C25.2272 20.75 20.75 25.2272 20.75 30.75C20.75 36.2728 25.2272 40.75 30.75 40.75Z" stroke="white" stroke-width="2"/>
<path d="M37.75 37.75L46.75 46.75" stroke="white" stroke-width="2.5" stroke-linecap="round"/>
<path d="M61.886 36.75L59.038 25.55H61.214L63.582 35.39H63.806L66.174 25.55H68.35L65.502 36.75H61.886ZM69.6966 36.75V25.55H71.8086V36.75H69.6966ZM76.5074 36.75V27.47H73.2434V25.55H81.8834V27.47H78.6194V36.75H76.5074ZM87.2205 36.974C85.8125 36.974 84.6925 36.59 83.8605 35.822C83.0285 35.0433 82.6125 33.934 82.6125 32.494V29.806C82.6125 28.366 83.0285 27.262 83.8605 26.494C84.6925 25.7153 85.8125 25.326 87.2205 25.326C88.6285 25.326 89.7485 25.7153 90.5805 26.494C91.4125 27.262 91.8285 28.366 91.8285 29.806V32.494C91.8285 33.934 91.4125 35.0433 90.5805 35.822C89.7485 36.59 88.6285 36.974 87.2205 36.974ZM87.2205 35.086C88.0098 35.086 88.6232 34.8567 89.0605 34.398C89.4978 33.9393 89.7165 33.326 89.7165 32.558V29.742C89.7165 28.974 89.4978 28.3607 89.0605 27.902C88.6232 27.4433 88.0098 27.214 87.2205 27.214C86.4418 27.214 85.8285 27.4433 85.3805 27.902C84.9432 28.3607 84.7245 28.974 84.7245 29.742V32.558C84.7245 33.326 84.9432 33.9393 85.3805 34.398C85.8285 34.8567 86.4418 35.086 87.2205 35.086ZM93.681 36.75V25.55H98.545C99.249 25.55 99.8623 25.6727 100.385 25.918C100.908 26.1633 101.313 26.51 101.601 26.958C101.889 27.406 102.033 27.934 102.033 28.542V28.734C102.033 29.406 101.873 29.95 101.553 30.366C101.233 30.782 100.838 31.086 100.369 31.278V31.566C100.796 31.5873 101.126 31.7367 101.361 32.014C101.596 32.2807 101.713 32.638 101.713 33.086V36.75H99.601V33.39C99.601 33.134 99.5317 32.926 99.393 32.766C99.265 32.606 99.0463 32.526 98.737 32.526H95.793V36.75H93.681ZM95.793 30.606H98.321C98.8223 30.606 99.2117 30.4727 99.489 30.206C99.777 29.9287 99.921 29.566 99.921 29.118V28.958C99.921 28.51 99.7823 28.1527 99.505 27.886C99.2277 27.6087 98.833 27.47 98.321 27.47H95.793V30.606ZM112.205 36.974C110.797 36.974 109.677 36.59 108.845 35.822C108.013 35.0433 107.597 33.934 107.597 32.494V29.806C107.597 28.366 108.013 27.262 108.845 26.494C109.677 25.7153 110.797 25.326 112.205 25.326C113.613 25.326 114.733 25.7153 115.565 26.494C116.397 27.262 116.813 28.366 116.813 29.806V32.494C116.813 33.934 116.397 35.0433 115.565 35.822C114.733 36.59 113.613 36.974 112.205 36.974ZM112.205 35.086C112.994 35.086 113.608 34.8567 114.045 34.398C114.482 33.9393 114.701 33.326 114.701 32.558V29.742C114.701 28.974 114.482 28.3607 114.045 27.902C113.608 27.4433 112.994 27.214 112.205 27.214C111.426 27.214 110.813 27.4433 110.365 27.902C109.928 28.3607 109.709 28.974 109.709 29.742V32.558C109.709 33.326 109.928 33.9393 110.365 34.398C110.813 34.8567 111.426 35.086 112.205 35.086ZM112.941 39.63C112.418 39.63 111.992 39.4647 111.661 39.134C111.341 38.814 111.181 38.382 111.181 37.838V36.75H113.229V37.518C113.229 37.838 113.378 37.998 113.677 37.998H114.621V39.63H112.941ZM122.985 36.974C122.068 36.974 121.279 36.8087 120.617 36.478C119.967 36.1367 119.465 35.6567 119.113 35.038C118.772 34.4087 118.601 33.6673 118.601 32.814V25.55H120.713V32.878C120.713 33.5607 120.905 34.0993 121.289 34.494C121.684 34.8887 122.249 35.086 122.985 35.086C123.721 35.086 124.281 34.8887 124.665 34.494C125.06 34.0993 125.257 33.5607 125.257 32.878V25.55H127.369V32.814C127.369 33.6673 127.193 34.4087 126.841 35.038C126.5 35.6567 125.999 36.1367 125.337 36.478C124.687 36.8087 123.903 36.974 122.985 36.974ZM129.415 36.75V25.55H136.615V27.47H131.527V30.142H136.167V32.062H131.527V34.83H136.711V36.75H129.415ZM138.275 36.75V25.55H140.387V36.75H138.275ZM142.493 36.75V25.55H147.358C148.062 25.55 148.675 25.6727 149.198 25.918C149.72 26.1633 150.126 26.51 150.414 26.958C150.702 27.406 150.845 27.934 150.845 28.542V28.734C150.845 29.406 150.686 29.95 150.366 30.366C150.046 30.782 149.651 31.086 149.182 31.278V31.566C149.608 31.5873 149.939 31.7367 150.174 32.014C150.408 32.2807 150.526 32.638 150.526 33.086V36.75H148.414V33.39C148.414 33.134 148.344 32.926 148.206 32.766C148.078 32.606 147.859 32.526 147.55 32.526H144.606V36.75H142.493ZM144.606 30.606H147.134C147.635 30.606 148.024 30.4727 148.302 30.206C148.59 29.9287 148.734 29.566 148.734 29.118V28.958C148.734 28.51 148.595 28.1527 148.318 27.886C148.04 27.6087 147.646 27.47 147.134 27.47H144.606V30.606ZM156.955 36.974C155.547 36.974 154.427 36.59 153.595 35.822C152.763 35.0433 152.347 33.934 152.347 32.494V29.806C152.347 28.366 152.763 27.262 153.595 26.494C154.427 25.7153 155.547 25.326 156.955 25.326C158.363 25.326 159.483 25.7153 160.315 26.494C161.147 27.262 161.563 28.366 161.563 29.806V32.494C161.563 33.934 161.147 35.0433 160.315 35.822C159.483 36.59 158.363 36.974 156.955 36.974ZM156.955 35.086C157.744 35.086 158.358 34.8567 158.795 34.398C159.232 33.9393 159.451 33.326 159.451 32.558V29.742C159.451 28.974 159.232 28.3607 158.795 27.902C158.358 27.4433 157.744 27.214 156.955 27.214C156.176 27.214 155.563 27.4433 155.115 27.902C154.678 28.3607 154.459 28.974 154.459 29.742V32.558C154.459 33.326 154.678 33.9393 155.115 34.398C155.563 34.8567 156.176 35.086 156.955 35.086ZM162.908 36.75V34.062L168.444 27.694V27.438H163.068V25.55H170.652V28.238L165.116 34.606V34.862H170.684V36.75H162.908Z" fill="white"/>
</svg>
