<svg width="160" height="100" viewBox="0 0 160 100" fill="none" xmlns="http://www.w3.org/2000/svg">
<path d="M160 0H0V100H160V0Z" fill="white"/>
<path d="M154 6H6V94H154V6Z" stroke="black" stroke-width="2"/>
<path d="M44.0519 38V28.2H47.4819L49.1759 36.74H49.4279L51.1219 28.2H54.5519V38H52.7599V29.558H52.5079L50.8279 38H47.7759L46.0959 29.558H45.8439V38H44.0519ZM55.7256 38L58.3016 28.2H61.5216L64.0976 38H62.1936L61.6616 35.844H58.1616L57.6296 38H55.7256ZM58.5956 34.136H61.2276L60.0376 29.362H59.7856L58.5956 34.136ZM68.9126 38.196C67.6993 38.196 66.738 37.86 66.0286 37.188C65.3193 36.5067 64.9646 35.536 64.9646 34.276V31.924C64.9646 30.664 65.3193 29.698 66.0286 29.026C66.738 28.3447 67.6993 28.004 68.9126 28.004C70.1166 28.004 71.0453 28.3353 71.6986 28.998C72.3613 29.6513 72.6926 30.552 72.6926 31.7V31.784H70.8726V31.644C70.8726 31.0653 70.7093 30.5893 70.3826 30.216C70.0653 29.8427 69.5753 29.656 68.9126 29.656C68.2593 29.656 67.746 29.8567 67.3726 30.258C66.9993 30.6593 66.8126 31.2053 66.8126 31.896V34.304C66.8126 34.9853 66.9993 35.5313 67.3726 35.942C67.746 36.3433 68.2593 36.544 68.9126 36.544C69.5753 36.544 70.0653 36.3573 70.3826 35.984C70.7093 35.6013 70.8726 35.1253 70.8726 34.556V34.304H72.6926V34.5C72.6926 35.648 72.3613 36.5533 71.6986 37.216C71.0453 37.8693 70.1166 38.196 68.9126 38.196ZM74.1984 38V28.2H76.0464V32.246H79.6864V28.2H81.5344V38H79.6864V33.926H76.0464V38H74.1984ZM83.3859 38V28.2H85.2339V38H83.3859ZM87.0773 38V28.2H90.5913L92.5373 36.74H92.7893V28.2H94.6093V38H91.0953L89.1493 29.46H88.8973V38H87.0773ZM96.4562 38V28.2H98.3042V38H96.4562ZM100.148 38V28.2H103.662L105.608 36.74H105.86V28.2H107.68V38H104.166L102.22 29.46H101.968V38H100.148ZM112.915 38.196C112.243 38.196 111.631 38.0467 111.081 37.748C110.539 37.44 110.105 36.9967 109.779 36.418C109.461 35.83 109.303 35.116 109.303 34.276V31.924C109.303 30.664 109.657 29.698 110.367 29.026C111.076 28.3447 112.037 28.004 113.251 28.004C114.455 28.004 115.383 28.326 116.037 28.97C116.699 29.6047 117.031 30.468 117.031 31.56V31.616H115.211V31.504C115.211 31.1587 115.136 30.846 114.987 30.566C114.847 30.286 114.632 30.0667 114.343 29.908C114.053 29.74 113.689 29.656 113.251 29.656C112.597 29.656 112.084 29.8567 111.711 30.258C111.337 30.6593 111.151 31.2053 111.151 31.896V34.304C111.151 34.9853 111.337 35.536 111.711 35.956C112.084 36.3667 112.607 36.572 113.279 36.572C113.951 36.572 114.441 36.3947 114.749 36.04C115.057 35.6853 115.211 35.2373 115.211 34.696V34.556H112.887V32.988H117.031V38H115.323V37.062H115.071C115.005 37.2207 114.898 37.3887 114.749 37.566C114.609 37.7433 114.394 37.8927 114.105 38.014C113.815 38.1353 113.419 38.196 112.915 38.196Z" fill="black"/>
<path d="M20 48H140" stroke="black" stroke-width="1.5"/>
<path d="M49.0353 68V58.2H50.8833V66.32H55.3633V68H49.0353ZM56.6232 68V58.2H62.9232V59.88H58.4712V62.218H62.5312V63.898H58.4712V66.32H63.0072V68H56.6232ZM63.7032 68L66.2792 58.2H69.4992L72.0752 68H70.1712L69.6392 65.844H66.1392L65.6072 68H63.7032ZM66.5732 64.136H69.2052L68.0152 59.362H67.7632L66.5732 64.136ZM73.2482 68V58.2H77.5042C78.1202 58.2 78.6569 58.3073 79.1142 58.522C79.5716 58.7367 79.9262 59.04 80.1782 59.432C80.4302 59.824 80.5562 60.286 80.5562 60.818V60.986C80.5562 61.574 80.4162 62.05 80.1362 62.414C79.8562 62.778 79.5109 63.044 79.1002 63.212V63.464C79.4736 63.4827 79.7629 63.6133 79.9682 63.856C80.1736 64.0893 80.2762 64.402 80.2762 64.794V68H78.4282V65.06C78.4282 64.836 78.3676 64.654 78.2462 64.514C78.1342 64.374 77.9429 64.304 77.6722 64.304H75.0962V68H73.2482ZM75.0962 62.624H77.3082C77.7469 62.624 78.0876 62.5073 78.3302 62.274C78.5822 62.0313 78.7082 61.714 78.7082 61.322V61.182C78.7082 60.79 78.5869 60.4773 78.3442 60.244C78.1016 60.0013 77.7562 59.88 77.3082 59.88H75.0962V62.624ZM82.0939 68V58.2H85.6079L87.5539 66.74H87.8059V58.2H89.6259V68H86.1119L84.1659 59.46H83.9139V68H82.0939ZM91.4728 68V58.2H93.3208V68H91.4728ZM95.1642 68V58.2H98.6782L100.624 66.74H100.876V58.2H102.696V68H99.1822L97.2362 59.46H96.9842V68H95.1642ZM107.931 68.196C107.259 68.196 106.648 68.0467 106.097 67.748C105.556 67.44 105.122 66.9967 104.795 66.418C104.478 65.83 104.319 65.116 104.319 64.276V61.924C104.319 60.664 104.674 59.698 105.383 59.026C106.092 58.3447 107.054 58.004 108.267 58.004C109.471 58.004 110.4 58.326 111.053 58.97C111.716 59.6047 112.047 60.468 112.047 61.56V61.616H110.227V61.504C110.227 61.1587 110.152 60.846 110.003 60.566C109.863 60.286 109.648 60.0667 109.359 59.908C109.07 59.74 108.706 59.656 108.267 59.656C107.614 59.656 107.1 59.8567 106.727 60.258C106.354 60.6593 106.167 61.2053 106.167 61.896V64.304C106.167 64.9853 106.354 65.536 106.727 65.956C107.1 66.3667 107.623 66.572 108.295 66.572C108.967 66.572 109.457 66.3947 109.765 66.04C110.073 65.6853 110.227 65.2373 110.227 64.696V64.556H107.903V62.988H112.047V68H110.339V67.062H110.087C110.022 67.2207 109.914 67.3887 109.765 67.566C109.625 67.7433 109.41 67.8927 109.121 68.014C108.832 68.1353 108.435 68.196 107.931 68.196Z" fill="black"/>
<path d="M126.222 90.228C125.808 90.228 125.433 90.129 125.097 89.931C124.761 89.727 124.491 89.457 124.287 89.121C124.089 88.779 123.99 88.404 123.99 87.996C123.99 87.582 124.089 87.207 124.287 86.871C124.491 86.535 124.761 86.268 125.097 86.07C125.433 85.866 125.808 85.764 126.222 85.764C126.636 85.764 127.011 85.866 127.347 86.07C127.683 86.268 127.95 86.535 128.148 86.871C128.352 87.207 128.454 87.582 128.454 87.996C128.454 88.404 128.352 88.779 128.148 89.121C127.95 89.457 127.683 89.727 127.347 89.931C127.011 90.129 126.636 90.228 126.222 90.228ZM126.222 89.796C126.558 89.796 126.861 89.715 127.131 89.553C127.401 89.391 127.617 89.175 127.779 88.905C127.941 88.629 128.022 88.326 128.022 87.996C128.022 87.66 127.941 87.357 127.779 87.087C127.617 86.817 127.401 86.601 127.131 86.439C126.861 86.277 126.558 86.196 126.222 86.196C125.892 86.196 125.589 86.277 125.313 86.439C125.043 86.601 124.827 86.817 124.665 87.087C124.503 87.357 124.422 87.66 124.422 87.996C124.422 88.326 124.503 88.629 124.665 88.905C124.827 89.175 125.043 89.391 125.313 89.553C125.589 89.715 125.892 89.796 126.222 89.796ZM126.222 89.346C125.928 89.346 125.697 89.259 125.529 89.085C125.361 88.905 125.277 88.677 125.277 88.401V87.591C125.277 87.315 125.361 87.09 125.529 86.916C125.697 86.736 125.928 86.646 126.222 86.646C126.522 86.646 126.75 86.736 126.906 86.916C127.068 87.09 127.149 87.315 127.149 87.591V87.699H126.663V87.537C126.663 87.405 126.624 87.297 126.546 87.213C126.468 87.123 126.36 87.078 126.222 87.078C126.084 87.078 125.973 87.123 125.889 87.213C125.805 87.297 125.763 87.405 125.763 87.537V88.455C125.763 88.587 125.805 88.698 125.889 88.788C125.973 88.872 126.084 88.914 126.222 88.914C126.36 88.914 126.468 88.872 126.546 88.788C126.624 88.698 126.663 88.587 126.663 88.455V88.293H127.149V88.401C127.149 88.677 127.068 88.905 126.906 89.085C126.75 89.259 126.522 89.346 126.222 89.346ZM129.609 93V91.92C129.609 91.536 129.693 91.218 129.861 90.966C130.029 90.714 130.266 90.51 130.572 90.354C130.878 90.192 131.241 90.066 131.661 89.976C132.195 89.856 132.579 89.685 132.813 89.463C133.053 89.235 133.173 88.962 133.173 88.644V88.59C133.173 88.374 133.125 88.167 133.029 87.969C132.933 87.765 132.78 87.6 132.57 87.474C132.366 87.342 132.099 87.276 131.769 87.276C131.313 87.276 130.956 87.417 130.698 87.699C130.44 87.981 130.311 88.356 130.311 88.824V89.22H129.555V88.77C129.555 88.386 129.639 88.029 129.807 87.699C129.975 87.363 130.224 87.093 130.554 86.889C130.884 86.679 131.289 86.574 131.769 86.574C132.255 86.574 132.657 86.67 132.975 86.862C133.293 87.048 133.53 87.288 133.686 87.582C133.848 87.876 133.929 88.185 133.929 88.509V88.671C133.929 89.145 133.779 89.553 133.479 89.895C133.179 90.237 132.699 90.48 132.039 90.624C131.469 90.75 131.046 90.918 130.77 91.128C130.5 91.332 130.365 91.632 130.365 92.028V92.298H133.875V93H129.609ZM137.243 93.126C136.829 93.126 136.457 93.039 136.127 92.865C135.797 92.685 135.536 92.439 135.344 92.127C135.152 91.815 135.056 91.455 135.056 91.047V88.752C135.056 88.308 135.155 87.924 135.353 87.6C135.551 87.27 135.812 87.018 136.136 86.844C136.466 86.664 136.829 86.574 137.225 86.574C137.627 86.574 137.984 86.655 138.296 86.817C138.614 86.973 138.863 87.198 139.043 87.492C139.229 87.786 139.322 88.134 139.322 88.536H138.566C138.566 88.146 138.446 87.834 138.206 87.6C137.966 87.36 137.633 87.24 137.207 87.24C136.805 87.24 136.472 87.381 136.208 87.663C135.944 87.939 135.812 88.302 135.812 88.752V89.688H135.92C136.064 89.424 136.268 89.217 136.532 89.067C136.802 88.917 137.102 88.842 137.432 88.842C137.822 88.842 138.167 88.926 138.467 89.094C138.767 89.256 139.001 89.493 139.169 89.805C139.343 90.111 139.43 90.48 139.43 90.912V91.02C139.43 91.434 139.334 91.8 139.142 92.118C138.95 92.43 138.689 92.676 138.359 92.856C138.029 93.036 137.657 93.126 137.243 93.126ZM137.243 92.46C137.681 92.46 138.029 92.328 138.287 92.064C138.545 91.794 138.674 91.452 138.674 91.038V90.93C138.674 90.648 138.611 90.402 138.485 90.192C138.365 89.976 138.197 89.808 137.981 89.688C137.765 89.568 137.519 89.508 137.243 89.508C136.973 89.508 136.73 89.571 136.514 89.697C136.298 89.817 136.127 89.982 136.001 90.192C135.875 90.402 135.812 90.636 135.812 90.894V91.065C135.812 91.467 135.941 91.8 136.199 92.064C136.457 92.328 136.805 92.46 137.243 92.46Z" fill="black"/>
</svg>
